<svg xmlns="http://www.w3.org/2000/svg" viewBox="0 0 152 204.79"><defs><style>.cls-1{fill:#e20c0c;}.cls-2{fill:#fff;}</style></defs><title>Asset 6</title><g id="Layer_2" data-name="Layer 2"><g id="Layer_2-2" data-name="Layer 2"><rect width="152" height="204.79"/></g><g id="Layer_1-2" data-name="Layer 1"><circle class="cls-1" cx="76" cy="126" r="70"/><path class="cls-2" d="M76,62a64,64,0,1,1-64,64A64,64,0,0,1,76,62m0-12a76,76,0,1,0,76,76A76,76,0,0,0,76,50Z"/><polyline points="75.79 64.82 75.29 142.3 50.41 144.48 76.25 64.5"/><polyline points="77.21 64.48 77.71 141.95 102.58 144.13 76.74 64.15"/><polyline points="74.39 144.5 76 185.51 76.4 185.11 51.47 147.31 74.79 144.09"/><polyline points="78.01 144.9 77.58 185.94 77.17 185.55 101 147.06 77.6 144.51"/></g></g></svg>