<svg xmlns="http://www.w3.org/2000/svg" viewBox="0 0 152 204.8"><defs><style>.cls-1{fill:#fff;}.cls-2{fill:#e20c0c;}</style></defs><title>Asset 2</title><g id="Layer_2" data-name="Layer 2"><g id="Layer_1-2" data-name="Layer 1"><rect width="152" height="204.8"/><circle cx="76" cy="126" r="70"/><path class="cls-1" d="M76,62a64,64,0,1,1-64,64A64.06,64.06,0,0,1,76,62m0-12a76,76,0,1,0,76,76A76,76,0,0,0,76,50Z"/><polyline class="cls-2" points="75.8 64.8 75.3 142.3 50.4 144.5 76.2 64.5"/><polyline class="cls-2" points="77.2 64.5 77.7 141.9 102.6 144.1 76.7 64.2"/><polyline class="cls-2" points="74.4 144.5 76 185.5 76.4 185.1 51.5 147.3 74.8 144.1"/><polyline class="cls-2" points="78 144.9 77.6 185.9 77.2 185.6 101 147.1 77.6 144.5"/></g></g></svg>