<svg xmlns="http://www.w3.org/2000/svg" viewBox="0 0 176.97 196"><defs><style>.cls-1,.cls-3{fill:none;stroke-miterlimit:10;}.cls-1{stroke:#fcfcfc;stroke-width:7px;}.cls-2{fill:#e7ed0f;}.cls-3{stroke:#fff;stroke-width:3px;}</style></defs><title>Asset 9</title><g id="Layer_2" data-name="Layer 2"><g id="Layer_2-2" data-name="Layer 2"><rect width="176.97" height="196"/></g><g id="Layer_1-2" data-name="Layer 1"><path class="cls-1" d="M115.62,160.55a139.59,139.59,0,0,1-27.87,2.75C42.6,163.3,6,142.64,6,117.15S42.6,71,87.75,71s81.75,20.66,81.75,46.15c0,14.33-11.57,27.13-29.72,35.6"/><polyline class="cls-1" points="142.16 150.65 133.29 185.64 112.33 159.98"/><polygon class="cls-2" points="37.02 128.9 28.57 124.59 20.25 129.11 21.73 119.75 14.88 113.23 24.23 111.75 28.3 103.21 32.6 111.65 41.99 112.89 35.3 119.58 37.02 128.9"/><polygon class="cls-2" points="66.78 128.9 58.34 124.59 50.02 129.11 51.51 119.75 44.65 113.23 53.99 111.75 58.08 103.21 62.38 111.65 71.77 112.89 65.06 119.58 66.78 128.9"/><polygon class="cls-2" points="95.53 128.9 87.09 124.59 78.77 129.11 80.25 119.75 73.39 113.23 82.73 111.75 86.83 103.21 91.13 111.65 100.5 112.89 93.81 119.58 95.53 128.9"/><polygon class="cls-2" points="125.3 128.9 116.86 124.59 108.53 129.11 110.03 119.75 103.16 113.23 112.5 111.75 116.59 103.21 120.89 111.65 130.28 112.89 123.58 119.58 125.3 128.9"/><polygon class="cls-3" points="154.37 128.89 146.47 124.86 138.66 129.09 140.04 120.32 133.62 114.21 142.38 112.82 146.22 104.81 148.63 109.55 150.24 112.72 159.03 113.89 152.75 120.16 154.37 128.89"/></g></g></svg>