<svg xmlns="http://www.w3.org/2000/svg" viewBox="0 0 177 196"><defs><style>.cls-1,.cls-3{fill:none;stroke:#e7ed0f;stroke-miterlimit:10;}.cls-1{stroke-width:7px;}.cls-2{fill:#fff;}.cls-3{stroke-width:3px;}</style></defs><title>Asset 4</title><g id="Layer_2" data-name="Layer 2"><g id="Layer_1-2" data-name="Layer 1"><rect width="177" height="196"/><path class="cls-1" d="M115.6,160.6a145.06,145.06,0,0,1-27.9,2.8c-45.2,0-81.8-20.7-81.8-46.2S42.6,71,87.7,71s81.8,20.7,81.8,46.2c0,14.3-11.6,27.1-29.7,35.6"/><polyline class="cls-1" points="142.2 150.6 133.3 185.6 112.3 160"/><polygon class="cls-2" points="37 128.9 28.6 124.6 20.3 129.1 21.7 119.8 14.9 113.2 24.2 111.8 28.3 103.2 32.6 111.7 42 112.9 35.3 119.6 37 128.9"/><polygon class="cls-2" points="66.8 128.9 58.3 124.6 50 129.1 51.5 119.8 44.7 113.2 54 111.8 58.1 103.2 62.4 111.7 71.8 112.9 65.1 119.6 66.8 128.9"/><polygon class="cls-2" points="95.5 128.9 87.1 124.6 78.8 129.1 80.3 119.8 73.4 113.2 82.7 111.8 86.8 103.2 91.1 111.7 100.5 112.9 93.8 119.6 95.5 128.9"/><polygon class="cls-2" points="125.3 128.9 116.9 124.6 108.5 129.1 110 119.8 103.2 113.2 112.5 111.8 116.6 103.2 120.9 111.7 130.3 112.9 123.6 119.6 125.3 128.9"/><polygon class="cls-3" points="154.4 128.9 146.5 124.9 138.7 129.1 140 120.3 133.6 114.2 142.4 112.8 146.2 104.8 148.6 109.6 150.2 112.7 159 113.9 152.8 120.2 154.4 128.9"/></g></g></svg>