<svg xmlns="http://www.w3.org/2000/svg" viewBox="0 0 173.22 196"><defs><style>.cls-1{fill:#eae411;}</style></defs><title>Asset 5</title><g id="Layer_2" data-name="Layer 2"><g id="Layer_2-2" data-name="Layer 2"><rect width="173.22" height="196"/></g><g id="Layer_1-2" data-name="Layer 1"><path class="cls-1" d="M30,193.94a8.65,8.65,0,0,0-7.9-4.49,10.87,10.87,0,0,0-2.27.24L1.74,113c4.38-1.91,7.08-7,6.45-12.29l134.25-42.2a10.28,10.28,0,0,0,9.34,6.95,9.28,9.28,0,0,0,1.58-.14l18,76.66a10.75,10.75,0,0,0-7,9.65Z"/><path d="M141.62,60.37A11.58,11.58,0,0,0,151.78,67h.43l17.45,74.18a12.17,12.17,0,0,0-6.67,9.39L30.61,192.16A10.38,10.38,0,0,0,22.05,188a8.4,8.4,0,0,0-1.12.05L3.47,113.83a13.44,13.44,0,0,0,6.3-12L141.62,60.37m1.59-3.66L6.67,99.65l-.14.25C7.67,105.26,4.83,110.68.16,112l-.16.16,18.72,79.57.19-.25a9.6,9.6,0,0,1,3.14-.54,7,7,0,0,1,7,4.84l137-43.06c-.72-4.07,2.31-8.35,6.89-9.66l.28.11L154.49,63.6h-.22a7.54,7.54,0,0,1-2.49.43c-3.75,0-7.19-2.8-8.3-7.14l-.23-.14Zm22.88,96H166v0Zm-137,43.09H29l.14.2-.06-.22Z"/><path class="cls-1" d="M37.33,181.88c-4,0-7.51-3.16-8.57-7.69l-13-55.13c-1.33-5.64,1.49-11.45,6.28-13L133,71.23a7.51,7.51,0,0,1,2.26-.35c4,0,7.51,3.16,8.57,7.7l13,55.12c1.33,5.64-1.49,11.45-6.28,13l-111,34.83A7.51,7.51,0,0,1,37.33,181.88Z"/><path d="M135.27,72.38c3.28,0,6.21,2.69,7.11,6.54l13,55.12c1.14,4.81-1.28,9.93-5.27,11.18l-111,34.88a6.21,6.21,0,0,1-1.81.28c-3.28,0-6.21-2.69-7.11-6.54l-13-55.12c-1.13-4.81,1.28-9.93,5.27-11.18l111-34.88a6.21,6.21,0,0,1,1.81-.28m0-3a8.92,8.92,0,0,0-2.71.42L21.62,104.67c-5.51,1.74-8.79,8.36-7.29,14.73l13,55.13c1.25,5.32,5.46,8.85,10,8.85A8.92,8.92,0,0,0,40,183L151,148.09c5.51-1.74,8.79-8.36,7.29-14.73l-13-55.13C144,72.91,139.81,69.38,135.27,69.38Z"/><path class="cls-1" d="M22.66,162.11a9.35,9.35,0,0,0-7.85-7.36l4.52-73.87c4.39-.22,8-3.73,8.93-8.51L157.66,83c.3,4.9,3.54,9,7.81,9.89L161,166.75a9.07,9.07,0,0,0-8.65,6Z"/><path d="M29.41,74,156.3,84.34A12.07,12.07,0,0,0,163.9,94l-4.37,71.36a10.54,10.54,0,0,0-8.22,5.82L23.87,160.71a10.89,10.89,0,0,0-7.49-7.14l4.37-71.35A11.42,11.42,0,0,0,29.41,74m-2.28-3.2-.19.17c-.4,4.84-3.92,8.45-8.06,8.45q-.39,0-.78,0l-.18.08-4.71,76.76.23-.16c4.41.24,7.86,3.53,7.83,7.41l132.22,10.81c.41-3.55,3.69-6.12,7.64-6.12a6.77,6.77,0,0,1,1,.05l.22.2,4.7-76.82-.18-.11c-4.48-.25-7.94-4.62-7.73-9.77l-.16-.2L27.13,70.77Zm-5.92,92.7.07.22v-.21Zm132.3,10.82v.21l.11-.21Z"/><path class="cls-1" d="M141.49,163.33h-.61L35.15,154.66c-4.9-.4-8.6-5.44-8.24-11.23L30.07,91.8c.33-5.47,4.22-9.75,8.85-9.75h.61l105.73,8.64c4.9.4,8.6,5.44,8.25,11.23l-3.16,51.64C150,159.05,146.13,163.33,141.49,163.33Z"/><path d="M38.92,83.55h.49L145.14,92.2c4,.33,7.17,4.74,6.87,9.64l-3.16,51.64c-.28,4.67-3.52,8.33-7.36,8.33H141L35.28,153.17c-4-.33-7.18-4.75-6.88-9.65l3.16-51.63c.29-4.67,3.52-8.33,7.36-8.34m0-3c-5.38,0-10,4.86-10.35,11.16l-3.16,51.63c-.4,6.58,3.93,12.35,9.62,12.82l105.73,8.64h.73c5.39,0,10-4.85,10.36-11.15L155,102c.4-6.59-3.93-12.36-9.63-12.82L39.66,80.58h-.74Z"/></g></g></svg>