<svg xmlns="http://www.w3.org/2000/svg" viewBox="0 0 173.2 196"><defs><style>.cls-1{fill:#020202;}.cls-2{fill:#eae411;}</style></defs><title>Asset 1</title><g id="Layer_2" data-name="Layer 2"><g id="Layer_1-2" data-name="Layer 1"><rect width="173.2" height="196"/><path class="cls-1" d="M29.9,193.9a8.64,8.64,0,0,0-7.9-4.5,17.85,17.85,0,0,0-2.3.2l-18-76.7c4.4-1.9,7.1-7,6.4-12.3L142.3,58.4a10.45,10.45,0,0,0,9.3,7,8.6,8.6,0,0,0,1.6-.1l18,76.7c-4.2,1.7-7,5.6-7,9.6Z"/><path class="cls-2" d="M141.6,60.4A11.67,11.67,0,0,0,151.8,67h.4l17.4,74.2a12,12,0,0,0-6.7,9.4L30.6,192.2A10.61,10.61,0,0,0,22,188a3.75,3.75,0,0,0-1.1.1L3.4,113.9a13.58,13.58,0,0,0,6.3-12L141.6,60.4m1.6-3.7L6.7,99.7l-.1.2C7.7,105.3,4.9,110.7.2,112l-.2.2,18.7,79.6.2-.2a8.4,8.4,0,0,1,3.1-.5,6.91,6.91,0,0,1,7,4.8l137-43.1c-.7-4.1,2.3-8.4,6.9-9.7l.3.1L154.5,63.6h-.2a6.9,6.9,0,0,1-2.5.4c-3.8,0-7.2-2.8-8.3-7.1l-.3-.2Zm22.9,96h0c-.1.1-.1.1-.1.2l.1-.2Zm-137,43.1h0l.1.2-.1-.2Z"/><path d="M37.3,181.9c-4,0-7.5-3.2-8.6-7.7l-13-55.1c-1.3-5.6,1.5-11.4,6.3-13L133,71.3a8.52,8.52,0,0,1,2.3-.3c4,0,7.5,3.2,8.6,7.7l13,55.1c1.3,5.6-1.5,11.4-6.3,13l-111,34.8A9.08,9.08,0,0,1,37.3,181.9Z"/><path class="cls-2" d="M135.3,72.4c3.3,0,6.2,2.7,7.1,6.5l13,55.1c1.1,4.8-1.3,9.9-5.3,11.2l-111,34.9a5.66,5.66,0,0,1-1.8.3c-3.3,0-6.2-2.7-7.1-6.5l-13-55.1c-1.1-4.8,1.3-9.9,5.3-11.2l111-34.9a4.84,4.84,0,0,1,1.8-.3m0-3a8.42,8.42,0,0,0-2.7.4l-111,34.9c-5.5,1.7-8.8,8.4-7.3,14.7l13,55.1c1.2,5.3,5.5,8.9,10,8.9A8.42,8.42,0,0,0,40,183l110.9-34.9c5.5-1.7,8.8-8.4,7.3-14.7l-13-55.1C144,72.9,139.8,69.4,135.3,69.4Z"/><path d="M22.7,162.1a9.36,9.36,0,0,0-7.8-7.4l4.5-73.9c4.4-.2,8-3.7,8.9-8.5L157.6,83c.3,4.9,3.5,9,7.8,9.9l-4.5,73.9a9,9,0,0,0-8.6,6Z"/><path class="cls-2" d="M29.4,74,156.3,84.3a12.13,12.13,0,0,0,7.6,9.6l-4.4,71.4a10.57,10.57,0,0,0-8.2,5.8L23.9,160.7a10.53,10.53,0,0,0-7.5-7.1l4.4-71.3A11.68,11.68,0,0,0,29.4,74m-2.3-3.2-.2.2c-.4,4.8-3.9,8.4-8.1,8.4H18l-.2.1-4.6,76.8.2-.2c4.4.2,7.9,3.5,7.8,7.4l132.2,10.8c.4-3.6,3.7-6.1,7.6-6.1a3.4,3.4,0,0,1,1,.1l.2.2,4.7-76.8-.2-.1c-4.5-.2-7.9-4.6-7.7-9.8l-.2-.2L27.1,70.8Zm-5.9,92.7.1.2a.31.31,0,0,0-.1-.2Zm132.3,10.8v.2l.1-.2Z"/><path d="M141.5,163.3h-.6L35.2,154.6c-4.9-.4-8.6-5.4-8.2-11.2l3.2-51.6c.3-5.5,4.2-9.8,8.8-9.8h.6l105.7,8.6c4.9.4,8.6,5.4,8.2,11.2l-3.2,51.6C150,159.1,146.1,163.3,141.5,163.3Z"/><path class="cls-2" d="M38.9,83.6h.5l105.7,8.7c4,.3,7.2,4.7,6.9,9.6l-3.2,51.6c-.3,4.7-3.5,8.3-7.4,8.3h-.5L35.2,153.2c-4-.3-7.2-4.8-6.9-9.6L31.5,92c.3-4.8,3.6-8.4,7.4-8.4m0-3c-5.4,0-10,4.9-10.3,11.2l-3.2,51.6c-.4,6.6,3.9,12.4,9.6,12.8l105.7,8.6h.7c5.4,0,10-4.9,10.4-11.1l3.2-51.6c.4-6.6-3.9-12.4-9.6-12.8L39.7,80.6Z"/></g></g></svg>